<svg xmlns="http://www.w3.org/2000/svg" width="48" height="48" viewBox="0 0 48 48">
  <path id="iconmonstr-github-5" d="M24,4A20,20,0,1,1,4,24,20.023,20.023,0,0,1,24,4Zm0-4A24,24,0,1,0,48,24,24,24,0,0,0,24,0Zm0,12a12,12,0,0,0-3.792,23.386c.6.112.792-.26.792-.578V32.574c-3.338.726-4.034-1.414-4.034-1.414A3.175,3.175,0,0,0,15.634,29.4c-1.088-.746.082-.73.082-.73a2.519,2.519,0,0,1,1.84,1.238,2.556,2.556,0,0,0,3.492,1,2.551,2.551,0,0,1,.762-1.6c-2.666-.3-5.466-1.334-5.466-5.93a4.639,4.639,0,0,1,1.236-3.22,4.327,4.327,0,0,1,.116-3.18s1.008-.322,3.3,1.23a11.378,11.378,0,0,1,6.01,0c2.292-1.552,3.3-1.23,3.3-1.23a4.323,4.323,0,0,1,.12,3.176,4.629,4.629,0,0,1,1.234,3.22c0,4.61-2.808,5.624-5.48,5.92A2.861,2.861,0,0,1,27,31.514v3.292c0,.32.192.694.8.576A12,12,0,0,0,24,12Z" fill="#112d4e"/>
</svg>
