<svg width="60" height="60" xmlns="http://www.w3.org/2000/svg" viewBox="0 0 60 60">
  <path id="svg_2" fill="#112D4E" d="m35.353,21.31c-4.137,0.02 -7.283,2.757 -8.46,7.118c-1.975,-3.04 -3.516,-6.517 -4.4,-9.453l-4.355,0.02l0.054,11.543a4.14,4.14 0 0 1 -4.119,4.158a4.14,4.14 0 0 1 -4.158,-4.119l-0.055,-11.543l-4.357,0.02l0.054,11.543c0.023,4.79 3.85,8.586 8.534,8.563s8.478,-3.852 8.456,-8.643l-0.01,-1.96c0.878,1.737 1.976,3.583 3.183,5.212l-2.663,12.753l4.464,-0.02l1.92,-9.266c1.747,1.082 3.7,1.725 5.996,1.714c4.792,-0.023 8.695,-3.96 8.67,-8.97a8.74,8.74 0 0 0 -8.753,-8.671l-0.001,0.001zm0.062,13.177c-1.742,0.008 -3.487,-0.746 -4.908,-1.938l0.427,-1.743l0,-0.1c0.32,-1.854 1.282,-5.016 4.55,-5.03a4.37,4.37 0 0 1 4.377,4.324c-0.098,2.505 -2.157,4.475 -4.445,4.486l-0.001,0.001z"/>
</svg>